<svg version="1.0" xmlns="http://www.w3.org/2000/svg" viewBox="750 -10 240 183" preserveAspectRatio="xMidYMid meet">
    <g transform="translate(0,183) scale(0.1,-0.1)">
        <!-- Estrella #7 -->
        <path fill="#194789" d="M8764 1580 l-228 -242 -165 8 -164 7 76 -94 c43 -51 77 -97 77 -101
        0 -6 -134 -150 -719 -771 l-36 -38 80 34 c606 257 978 409 983 401 38 -55 206
        -253 212 -249 4 2 13 81 20 175 8 94 18 177 24 185 6 7 229 105 496 217 l485
        203 -240 6 c-132 4 -345 7 -472 8 l-233 1 0 43 c1 23 9 132 19 242 11 110 18
        201 16 203 -1 2 -105 -106 -231 -238z"/>
    </g>
</svg>
