<svg version="1.0" xmlns="http://www.w3.org/2000/svg" viewBox="0 0 991 183" preserveAspectRatio="xMidYMid meet">
    <g transform="translate(0,183) scale(0.1,-0.1)">
        <!-- Letra S -->
        <path fill="#194789" d="M388 1775 c-86 -31 -184 -122 -219 -200 -10 -24 -24 -77 -31 -118
        -10 -66 -9 -81 6 -120 22 -59 73 -116 190 -212 53 -43 98 -86 101 -96 9 -28
        -12 -101 -38 -126 -28 -29 -100 -35 -124 -10 -14 14 -14 23 1 89 9 40 19 83
        22 96 l6 23 -128 -3 -128 -3 -23 -90 c-12 -49 -23 -103 -23 -119 0 -77 56
        -167 126 -201 54 -25 149 -36 229 -24 179 25 292 133 341 327 23 94 5 176 -56
        245 -16 19 -72 69 -123 111 -51 42 -101 90 -110 106 -16 26 -16 33 -3 64 17
        41 42 56 91 56 29 0 37 -5 45 -25 9 -24 3 -75 -16 -137 -5 -17 5 -18 120 -18
        l125 0 10 53 c20 107 21 125 10 176 -14 65 -56 116 -124 147 -42 20 -66 24
        -145 23 -54 0 -111 -6 -132 -14z"/>

        <!-- Letra E -->
        <path fill="#194789" d="M941 1683 c-54 -236 -221 -983 -221 -992 0 -8 89 -11 289 -11 267 0
        290 1 295 18 8 27 46 201 46 212 0 6 -60 10 -165 10 l-164 0 5 28 c3 15 13 61
        23 102 l17 75 154 5 154 5 27 113 26 112 -154 0 -153 0 5 23 c3 12 11 49 18
        82 l14 60 164 5 164 5 20 90 c12 50 25 102 28 118 l7 27 -289 0 -289 0 -21
        -87z"/>

        <!-- Letra T -->
        <path fill="#194789" d="M1571 1673 c-13 -54 -25 -106 -27 -115 -5 -16 4 -18 100 -18 58 0
        106 -4 106 -9 0 -5 -39 -181 -86 -392 -47 -211 -89 -401 -94 -422 l-8 -38 126
        3 125 3 93 413 c50 227 95 419 98 427 4 12 27 15 110 15 l104 0 21 91 c12 50
        24 101 27 115 l6 24 -340 0 -340 0 -21 -97z"/>

        <!-- Segunda Letra T -->
        <path fill="#ed1c25" d="M2327 1763 c-3 -5 -14 -51 -26 -103 -12 -52 -24 -103 -27 -112 -5
        -16 4 -18 100 -18 75 0 106 -3 106 -12 0 -6 -40 -193 -90 -414 -49 -221 -90
        -407 -90 -413 0 -7 41 -11 123 -11 l122 0 95 425 94 425 107 0 107 0 26 113
        c14 61 26 115 26 120 0 4 -150 7 -334 7 -184 0 -337 -3 -339 -7z"/>

        <!-- Letra U -->
        <path fill="#ed1c25" d="M2960 1352 c-106 -467 -111 -509 -67 -584 18 -31 42 -53 79 -73 48
        -27 64 -30 165 -33 93 -3 124 0 180 16 128 39 203 119 247 262 20 66 196 806
        196 826 0 2 -56 4 -125 4 -121 0 -125 -1 -130 -22 -3 -13 -39 -162 -80 -333
        -106 -444 -118 -485 -150 -512 -32 -28 -115 -32 -135 -8 -21 25 -7 107 84 497
        47 201 86 369 86 372 0 3 -57 6 -127 6 l-128 0 -95 -418z"/>

        <!-- Letra R -->
        <path fill="#ed1c25" d="M3870 1765 c0 -6 -239 -1045 -246 -1067 -5 -17 5 -18 120 -18 110 0
        125 2 130 18 2 9 26 110 52 225 l48 207 57 0 c69 0 105 -14 113 -44 3 -12 -6
        -71 -20 -132 -13 -60 -27 -146 -31 -191 l-6 -83 147 0 c140 0 146 1 146 20 0
        11 7 112 16 223 16 215 15 251 -16 290 l-19 24 49 51 c40 41 53 65 74 132 45
        140 32 241 -36 293 -60 46 -130 57 -365 57 -117 0 -213 -2 -213 -5z m267 -207
        l42 -41 71 20 c38 11 70 18 70 14 0 -4 -18 -25 -40 -46 l-40 -39 27 -28 c29
        -31 27 -32 -32 -18 -39 9 -41 8 -91 -41 l-51 -51 -7 60 c-7 59 -7 60 -44 69
        l-37 9 38 13 c37 12 37 13 37 67 0 30 3 54 7 54 4 0 26 -19 50 -42z"/>

        <!-- Estrella #1 -->
        <path fill="#194789" d="M2290 356 c-17 -53 -37 -99 -44 -101 -6 -2 -31 -9 -56 -16 l-45 -12
        43 -14 c23 -8 42 -18 42 -22 0 -4 -13 -46 -29 -94 -17 -48 -27 -87 -25 -87 3
        0 40 28 82 62 42 34 83 66 89 71 8 6 30 3 60 -7 25 -9 48 -16 50 -16 2 0 -4
        16 -12 36 -8 20 -15 40 -15 44 0 5 29 32 65 60 36 29 64 54 63 56 -2 1 -40 -5
        -84 -15 l-81 -18 -35 85 -35 86 -33 -98z"/>

        <!-- Estrella #2 -->
        <path fill="#ed1c25" d="M3680 591 c-14 -36 -8 -34 -255 -61 -110 -13 -203 -26 -208 -29 -4
        -4 79 -18 183 -31 105 -13 193 -27 196 -31 2 -5 -34 -86 -82 -181 -47 -95 -79
        -166 -71 -158 12 13 268 321 272 327 1 2 133 -14 180 -22 28 -5 27 -2 -33 58
        l-63 63 21 27 21 27 -43 -6 c-37 -5 -46 -3 -67 20 -31 33 -36 33 -51 -3z"/>

        <!-- Estrella #3 -->
        <path fill="#194789" d="M4808 740 c-8 -19 -18 -42 -21 -51 -6 -19 -40 -23 -339 -41 -115 -6
        -208 -15 -208 -18 0 -3 105 -40 234 -83 l235 -78 -15 -35 c-17 -41 -13 -41 41
        -9 l43 25 88 -30 c48 -17 89 -30 91 -30 1 0 -8 29 -21 65 l-24 66 22 13 c11 8
        82 48 156 91 l135 76 -55 -5 c-30 -3 -114 -9 -185 -12 l-131 -7 -16 49 -15 49
        -15 -35z"/>

        <!-- Estrella #4 -->
        <path fill="#ed1c25" d="M5547 713 l6 -149 -64 -19 c-35 -10 -68 -22 -72 -25 -5 -4 18 -11 50
        -15 94 -11 92 -9 95 -142 l3 -116 111 101 111 101 107 -18 108 -18 -61 61 -61
        61 100 89 c55 49 98 91 96 93 -2 3 -181 -48 -267 -77 -25 -7 -37 1 -148 107
        l-121 115 7 -149z"/>

        <!-- Estrella #5 -->
        <path fill="#ed1c25" d="M6340 1671 c0 -43 -3 -105 -6 -137 l-6 -59 -325 -190 c-178 -104
        -320 -191 -316 -192 5 -2 143 24 308 57 164 33 304 60 311 60 8 0 10 -30 7
        -112 -6 -130 -13 -133 90 38 l67 110 123 23 c67 13 128 26 135 29 8 3 -8 28
        -45 71 -31 36 -62 73 -69 81 -11 13 -4 30 40 100 29 47 65 106 80 133 l28 47
        -127 -75 c-70 -41 -128 -75 -129 -75 -1 0 -35 38 -75 85 -40 47 -76 85 -82 85
        -5 0 -9 -35 -9 -79z"/>

        <!-- Estrella #6 -->
        <path fill="#194789" d="M7560 1559 c-212 -131 -390 -238 -397 -238 -6 -1 -26 18 -45 41 l-33
        42 -10 -74 -10 -75 -195 -119 -194 -120 176 -36 c97 -19 179 -37 181 -40 3 -3
        -1 -66 -9 -140 -8 -74 -13 -141 -12 -148 2 -6 50 46 108 118 58 71 112 130
        121 130 9 0 85 -13 169 -30 85 -16 155 -28 157 -27 1 2 -42 54 -97 117 -54 62
        -96 118 -92 124 3 6 134 168 290 359 156 192 282 349 281 351 -2 1 -177 -104
        -389 -235z"/>

        <!-- Estrella #7 -->
        <path fill="#194789" d="M8764 1580 l-228 -242 -165 8 -164 7 76 -94 c43 -51 77 -97 77 -101
        0 -6 -134 -150 -719 -771 l-36 -38 80 34 c606 257 978 409 983 401 38 -55 206
        -253 212 -249 4 2 13 81 20 175 8 94 18 177 24 185 6 7 229 105 496 217 l485
        203 -240 6 c-132 4 -345 7 -472 8 l-233 1 0 43 c1 23 9 132 19 242 11 110 18
        201 16 203 -1 2 -105 -106 -231 -238z"/>
    </g>
</svg>
